<svg xmlns="http://www.w3.org/2000/svg" version="1.1" xmlns:xlink="http://www.w3.org/1999/xlink" xmlns:svgjs="http://svgjs.dev/svgjs" width="1200" height="1200"><svg xmlns="http://www.w3.org/2000/svg" xmlns:xlink="http://www.w3.org/1999/xlink" width="1200" zoomAndPan="magnify" viewBox="0 0 900 899.99999" height="1200" preserveAspectRatio="xMidYMid meet" version="1.0"><defs><clipPath id="SvgjsClipPath1020"><path d="M 62.507812 14.617188 L 837.257812 14.617188 L 837.257812 885.367188 L 62.507812 885.367188 Z M 62.507812 14.617188 " clip-rule="nonzero"></path></clipPath></defs><rect x="-90" width="1080" fill="#ffffff" y="-89.999999" height="1079.999988" fill-opacity="1"></rect><rect x="-90" width="1080" fill="#ffffff" y="-89.999999" height="1079.999988" fill-opacity="1"></rect><g clip-path="url(#f9e260bcdf)"><path fill="#010101" d="M 837.417969 885.496094 L 786.429688 885.496094 L 626 606.8125 C 617.699219 592.710938 606.304688 581.308594 591.808594 572.609375 C 577.273438 563.910156 561.746094 559.542969 545.148438 559.542969 C 527.753906 559.542969 511.992188 563.714844 497.894531 571.976562 C 491.382812 575.789062 485.503906 580.277344 480.222656 585.363281 C 474.066406 591.28125 468.746094 597.992188 464.296875 605.578125 L 460.566406 611.816406 L 443.210938 611.816406 C 441.347656 607.089844 439.242188 602.519531 436.898438 598.113281 C 433.640625 592.152344 430.066406 586.355469 426.257812 580.753906 C 417.320312 567.605469 406.757812 555.332031 394.566406 544.011719 C 377.171875 527.84375 357.039062 513.148438 334.246094 499.839844 C 311.414062 486.574219 287.984375 473.308594 263.960938 460.039062 C 239.894531 446.773438 216.070312 433.269531 192.441406 419.605469 C 168.851562 405.902344 147.488281 390.371094 128.429688 372.933594 C 84.46875 333.964844 62.507812 287.09375 62.507812 232.359375 C 62.507812 202.488281 68.109375 174.324219 79.304688 147.753906 C 90.503906 121.21875 106.03125 98.21875 125.925781 78.714844 C 145.820312 59.214844 169.050781 43.683594 195.578125 32.042969 C 222.105469 20.445312 250.300781 14.644531 280.160156 14.644531 C 310.023438 14.644531 338.179688 20.445312 364.746094 32.042969 C 391.269531 43.683594 414.261719 59.214844 433.761719 78.714844 C 453.21875 98.21875 468.785156 121.21875 480.382812 147.753906 C 491.976562 174.324219 497.773438 202.488281 497.773438 232.359375 L 453.058594 232.359375 C 453.058594 208.328125 448.492188 185.6875 439.359375 164.554688 C 430.226562 143.421875 417.996094 125.191406 402.667969 109.820312 C 387.300781 94.484375 369.074219 82.25 347.945312 73.117188 C 326.820312 64.019531 304.1875 59.453125 280.160156 59.453125 C 256.097656 59.453125 233.5 64.019531 212.375 73.117188 C 191.25 82.25 172.984375 94.484375 157.65625 109.820312 C 142.285156 125.191406 130.054688 143.421875 120.960938 164.554688 C 111.828125 185.6875 107.300781 208.328125 107.300781 232.359375 C 107.300781 272.992188 124.296875 309.058594 158.289062 340.597656 C 174.847656 355.535156 194.148438 369.4375 216.109375 382.265625 C 238.066406 395.136719 261.101562 408.203125 285.125 421.472656 C 309.984375 434.738281 334.882812 448.640625 359.742188 463.140625 C 384.601562 477.636719 406.996094 494.441406 426.890625 513.503906 C 435.589844 521.609375 443.449219 529.910156 450.558594 538.53125 L 752.835938 14.644531 L 803.824219 14.644531 L 570.007812 421.472656 Z M 157.65625 790.324219 C 142.285156 774.992188 130.097656 756.71875 120.960938 735.585938 C 111.828125 714.457031 107.261719 691.855469 107.261719 667.78125 L 62.507812 667.78125 C 62.507812 697.652344 68.109375 725.855469 79.304688 752.390625 C 90.503906 778.921875 106.03125 802.160156 125.925781 822.0625 C 145.820312 841.960938 169.011719 857.53125 195.578125 868.695312 C 222.105469 879.894531 250.300781 885.496094 280.160156 885.496094 L 280.160156 840.730469 C 256.097656 840.730469 233.542969 836.160156 212.375 827.027344 C 191.25 817.890625 172.984375 805.695312 157.65625 790.324219 Z M 157.65625 790.324219 " fill-opacity="1" fill-rule="nonzero"></path></g></svg><style>@media (prefers-color-scheme: light) { :root { filter: none; } }
@media (prefers-color-scheme: dark) { :root { filter: none; } }
</style></svg>