<svg xmlns="http://www.w3.org/2000/svg" width="1053" height="171" fill="none">
    <path fill="#000" d="M.044.401h259.895v170.188H.044z" />
    <path fill="#F00000" d="M259.95 170.589H.044V.401H259.95z" />
    <path fill="#fff"
        d="M178.783 68.98h-32.437V36.207h-32.698V68.98H81.21v33.037h32.438v32.77h32.698v-32.77h32.437z" />
    <path fill="#000"
        d="M276.327 140.807q4.538-.163 6.895-1.083 2.352-.936 3.688-3.959c.901-2.01 1.354-5.208 1.354-9.583V61.849c0-6.26.219-11.297.667-15.104l-12.604.5V34.307l48.875-.167q20.999 0 35.52 8.313c9.693 5.541 16.922 12.74 21.688 21.583 4.76 8.85 7.146 18.146 7.146 27.896q0 14.772-6.813 28.458-6.797 13.69-21.5 22.604-14.71 8.898-36.875 8.896h-48.041zm51.562-1.188q11.767.002 19.667-6.208c5.26-4.135 9.151-9.542 11.666-16.208q3.79-10 3.792-21.75-.001-25.54-10.417-37.792c-6.947-8.177-16.744-12.27-29.395-12.27q-5.71 0-8.146 2.854c-1.625 1.906-2.438 5.708-2.438 11.416v64.688q-.001 9.4-.666 15.104.828-.166 3.187-.167l7.208.167c1.459.114 3.303.166 5.542.166M402.239 140.974q6.375.001 8.125-3.521c1.177-2.36 1.771-6.172 1.771-11.438V97.807c0-5.042.229-9.802.687-14.292l-11.771.521v-12.77q10.579 0 17.125-1.5 6.563-1.517 8.75-3.542h8.229q.329 2.523.5 6.562.166 4.023.167 7.875h.333c7.625-10.302 15.688-15.458 24.188-15.458q6.39.001 10.5 3.541 4.125 3.525 4.125 10.417-.001 4.36-2.854 8.063-2.86 3.687-8.563 3.687-4.212 0-7.479-2.187-3.274-2.189-3.792-7.563c-3.125 0-6.343 1.828-9.645 5.48q-4.96 5.46-6.646 10.833v27.375c0 5.375-.224 10.302-.667 14.77 3.583-.333 7.219-.5 10.917-.5v12.771h-44zM495.732 154.578c-3.583 0-6.552-1.261-8.895-3.771q-3.522-3.787-3.521-9.333c0-3.584 1.229-6.657 3.687-9.23q3.703-3.875 8.563-3.875c3.468 0 6.354 1.292 8.646 3.875 2.302 2.573 3.458 5.646 3.458 9.23q-.001 5.546-3.292 9.333c-2.182 2.51-5.062 3.771-8.646 3.771M534.033 142.124q4.437-.163 6.75-1.062 2.312-.915 3.625-3.875 1.312-2.976 1.312-9.396V64.666c0-6.151.219-11.094.667-14.833l-12.354.479V37.624h47.291V48.5q-4.46.17-6.77 1.084-2.298.897-3.625 3.875-1.313 2.959-1.313 9.395v25.709h45.333V64.666q-.001-11.038.646-14.833l-12.354.479V37.624h47.313V48.5q-4.46.17-6.771 1.084-2.298.897-3.625 3.875-1.313 2.959-1.313 9.395v63.125q-.002 9.234-.666 14.834 5.265-.5 12.375-.5v12.687h-47.313v-10.875q4.454-.163 6.75-1.062 2.313-.915 3.625-3.875c.885-1.985 1.333-5.115 1.333-9.396v-26.709l-45.333.5v24.396c0 6.157-.219 11.099-.646 14.834q5.267-.5 12.354-.5v12.687h-47.291zM704.542 155.645q-12.024-.002-21.25-5.354c-6.156-3.584-10.937-8.667-14.354-15.25-3.406-6.594-5.104-14.292-5.104-23.084q0-11.54 5.187-21.666c3.469-6.76 8.334-12.172 14.584-16.23q9.39-6.102 21.437-6.104c10.651 0 19.521 3.136 26.604 9.396q10.643 9.398 10.479 31.313l-54.062.979q-.002 14.525 5.521 22.917 5.516 8.397 17.729 8.395 5.749.001 12.333-2.958c4.401-1.969 8.365-5.104 11.896-9.396l7.417 6.917q-14.025 20.125-38.417 20.125m14.833-57.52q-.485-18.627-13.5-18.626c-4.739 0-8.51 1.677-11.312 5.021q-4.188 5.025-5.5 13.604zM774.715 155.645c-6.917 0-12.386-2.063-16.396-6.188q-6.022-6.187-6.021-15.75-.001-14.5 13.521-22c9.01-5 19.833-7.77 32.458-8.312v-8.583q0-14.979-11.187-14.98-7.273.002-11.875 4.605c1.318 1.541 1.979 3.635 1.979 6.27q-.001 3.96-2.729 7.084-2.712 3.125-7.979 3.125-4.96.001-7.771-3.209c-1.865-2.135-2.792-4.802-2.792-8 0-4.276 1.531-8.062 4.604-11.354q4.626-4.955 12.625-7.666 8-2.728 17.563-2.73 30.478.001 30.479 31.48l-.167 27.02c0 5.282-.218 10.115-.646 14.5q5.436-.477 10.709-.479v12.521h-31.146c-.224-1.427-.448-3.958-.667-7.583h-.166c-6.709 6.823-14.844 10.229-24.396 10.229m10.396-16.167c4.942 0 9.281-1.968 13.02-5.916v-18.48c-6.489.667-11.848 2.323-16.083 4.959q-6.335 3.959-6.333 10.708-.001 4.462 2.708 6.604 2.727 2.125 6.688 2.125M837.81 142.291c2.959 0 5.125-.573 6.5-1.729q2.062-1.727 2.646-4.688c.386-1.984.584-4.734.584-8.25v-67.75c0-5.26.213-10.041.645-14.333l-11.541.5V33.52c6.927 0 12.531-.49 16.812-1.48 4.292-1 7.151-2.155 8.584-3.478h8.895v97.895q0 7.923-.666 14.5 5.437-.477 10.708-.479v12.521H837.81zM924.481 155.645q-25.71.001-25.709-31.646l.313-39.729h-11.208V70.603c3.526 0 6.854-1.093 9.979-3.291a32.2 32.2 0 0 0 8-8.084q3.29-4.79 4.604-9.229h12.208l-.166 20.604h20.916v12.688l-20.916.479-.167 40.542q-.001 16 9.896 16 7.891.001 14.979-9.896l7.917 7.416q-7.75 11.377-15.5 14.605c-5.157 2.135-10.204 3.208-15.146 3.208M957.248 142.291c2.959 0 5.125-.573 6.5-1.729q2.062-1.727 2.646-4.688c.386-1.984.584-4.734.584-8.25v-67.75c0-5.26.213-10.041.645-14.333l-11.541.5V33.52c6.927 0 12.531-.49 16.812-1.48 4.292-1 7.151-2.155 8.584-3.478h8.895v48.625q4.768-3.79 11.857-6.5 7.095-2.728 12.21-2.73c9.88 0 16.96 2.865 21.25 8.584 4.29 5.708 6.49 14.99 6.6 27.833v22.083c0 5.282-.22 10.115-.67 14.5 3.51-.317 7.09-.479 10.71-.479v12.521H1009v-10.708c4.17 0 6.85-1.151 8.06-3.459 1.21-2.302 1.81-6.041 1.81-11.208l-.14-23.417c0-7.25-1.08-12.572-3.23-15.979-2.14-3.4-5.52-5.104-10.13-5.104-2.64 0-5.33.578-8.08 1.73-2.75 1.156-5.057 2.603-6.917 4.353v37.25q-.001 7.923-.666 14.5c3.625-.317 7.192-.479 10.713-.479v12.521h-43.172z" />
</svg>